<svg width="178" height="93" viewBox="0 0 178 93" fill="none" xmlns="http://www.w3.org/2000/svg">
<rect y="18" width="178" height="56" rx="28" fill="#515F49"/>
<path d="M71.432 41.056L70.352 41.416L65.564 34.324H61.172V58.264L64.952 59.56L64.232 61H53.288V59.884L56.672 57.22V34.324H52.388L47.6 41.416L46.52 41.056V32.056L48.464 32.704H69.488L71.432 32.056V41.056ZM101.385 41.056L100.305 41.416L95.5171 34.324H91.1251V58.264L94.9051 59.56L94.1851 61H83.2411V59.884L86.6251 57.22V34.324H82.3411L77.5531 41.416L76.4731 41.056V32.056L78.4171 32.704H99.4411L101.385 32.056V41.056ZM131.338 41.056L130.258 41.416L125.47 34.324H121.078V58.264L124.858 59.56L124.138 61H113.194V59.884L116.578 57.22V34.324H112.294L107.506 41.416L106.426 41.056V32.056L108.37 32.704H129.394L131.338 32.056V41.056Z" fill="#EAFEDF"/>
</svg>
